<svg width="86" height="86" viewBox="0 0 86 86" fill="none" xmlns="http://www.w3.org/2000/svg">
<g clip-path="url(#clip0_3_2)">
<path fill-rule="evenodd" clip-rule="evenodd" d="M42.7 85.4C66.3 85.4 85.4 66.3 85.4 42.7C85.4 19.1 66.3 0 42.7 0C19.1 0 0 19.1 0 42.7C0 66.3 19.1 85.4 42.7 85.4Z" fill="#E1A73E"/>
<path fill-rule="evenodd" clip-rule="evenodd" d="M42.7 81.8C64.3 81.8 81.8 64.3 81.8 42.7C81.8 21.1 64.3 3.60001 42.7 3.60001C21.1 3.60001 3.6 21.1 3.6 42.7C3.6 64.3 21.1 81.8 42.7 81.8Z" fill="#F6BE50"/>
<path fill-rule="evenodd" clip-rule="evenodd" d="M17.6907 39H70.3093C72.3128 39 74 41.4789 74 44.4225V44.5775C74 47.5211 72.3128 50 70.3093 50H17.6907C15.6872 50 14 47.5211 14 44.5775V44.4225C14 41.4789 15.5817 39 17.6907 39Z" fill="#90591D"/>
</g>
<defs>
<clipPath id="clip0_3_2">
<rect width="85.4" height="85.4" fill="white"/>
</clipPath>
</defs>
</svg>
